<svg xmlns="http://www.w3.org/2000/svg" viewBox="0 0 400 560" fill="none" stroke="#9b2226" stroke-width="1.4" stroke-linecap="round" stroke-linejoin="round">
  <!-- blueprint grid hints -->
  <g stroke="#9b2226" stroke-width="0.4" opacity="0.5">
    <line x1="200" y1="20" x2="200" y2="540"/>
    <circle cx="200" cy="120" r="120" stroke-dasharray="3 6"/>
    <line x1="40" y1="280" x2="360" y2="280" stroke-dasharray="3 6"/>
  </g>
  <!-- head -->
  <rect x="158" y="40" width="84" height="92" rx="26"/>
  <line x1="170" y1="70" x2="230" y2="70"/>
  <circle cx="181" cy="88" r="7"/>
  <circle cx="219" cy="88" r="7"/>
  <line x1="176" y1="112" x2="224" y2="112"/>
  <!-- neck -->
  <line x1="188" y1="132" x2="188" y2="148"/>
  <line x1="212" y1="132" x2="212" y2="148"/>
  <!-- torso -->
  <rect x="146" y="148" width="108" height="150" rx="20"/>
  <circle cx="200" cy="200" r="20"/>
  <circle cx="200" cy="200" r="7"/>
  <line x1="166" y1="250" x2="234" y2="250"/>
  <line x1="166" y1="270" x2="234" y2="270"/>
  <!-- shoulders + arms -->
  <circle cx="146" cy="162" r="12"/>
  <circle cx="254" cy="162" r="12"/>
  <line x1="138" y1="172" x2="116" y2="250"/>
  <line x1="262" y1="172" x2="284" y2="250"/>
  <circle cx="113" cy="258" r="10"/>
  <circle cx="287" cy="258" r="10"/>
  <line x1="111" y1="268" x2="104" y2="338"/>
  <line x1="289" y1="268" x2="296" y2="338"/>
  <rect x="94" y="338" width="22" height="30" rx="6"/>
  <rect x="284" y="338" width="22" height="30" rx="6"/>
  <!-- pelvis -->
  <rect x="158" y="298" width="84" height="40" rx="12"/>
  <!-- legs -->
  <circle cx="178" cy="350" r="12"/>
  <circle cx="222" cy="350" r="12"/>
  <line x1="178" y1="362" x2="172" y2="448"/>
  <line x1="222" y1="362" x2="228" y2="448"/>
  <circle cx="171" cy="456" r="10"/>
  <circle cx="229" cy="456" r="10"/>
  <line x1="170" y1="466" x2="166" y2="520"/>
  <line x1="230" y1="466" x2="234" y2="520"/>
  <rect x="150" y="520" width="34" height="18" rx="5"/>
  <rect x="216" y="520" width="34" height="18" rx="5"/>
</svg>
